<?xml version="1.0" encoding="utf-8"?>
<svg version="1.1" id="Layer_1" xmlns="http://www.w3.org/2000/svg" xmlns:xlink="http://www.w3.org/1999/xlink" x="0px" y="0px"
	 viewBox="0 0 402.7 100.1" xml:space="preserve" style="width: auto; height: 40px;">
<style type="text/css">
	.st0{fill:#FFFFFF;}
	.st1{fill:#27B470;}
</style>
<g>
	<path class="st1" d="M51.6,44c0.2,0,0.5,0,0.9,0c0.2,0,0.5,0,0.7,0c12.5,0,27-4.6,27-17.6c0-11.6-12.7-26.3-27-26.3
		c-0.2,0-0.5,0-0.9,0c-0.2,0-0.5,0-0.7,0c-14.3,0-27,14.7-27,26.3C24.6,39.4,39.1,44,51.6,44z"/>
	<path class="st1" d="M34.7,76.8c4.1-1.9,8.2-4.2,12.3-6.2c11.9-6,23.6-12.4,36.1-16.9c2.9-1,6.6-2.9,8.1-5.6c1.1-2.1,1.2-4.7,0.6-7
		c-0.4-1.6-1.3-3.2-2.8-3.6c-1.2-0.3-2.4,0.1-3.4,0.8C68,48.9,48.5,52.5,29.1,44.7c-6.5-2.6-14.4-0.9-19.8,3.6S0.8,59.7,0.3,66.8
		c-0.2,3.3,0.1,6.7,1.9,9.4c2.6,3.9,7.8,5.4,12.5,5.5C22,81.9,28.5,79.7,34.7,76.8z"/>
	<path class="st1" d="M100.3,65.2c-8-11.2-21-6-30.9-0.8C50.1,74.6,29.1,89.7,6,86.3c-1-0.1-1.3,1.3-0.9,2.2c1,2.7,3.7,4.2,6.3,5.4
		c16.8,7.5,36,6.7,54.3,4.8c5.9-0.6,11.8-1.3,17.5-3c5.7-1.7,11.1-4.6,15.1-9c1.8-1.9,3.2-4.2,4.1-6.7
		C104.2,75.2,103.4,69.5,100.3,65.2z"/>
</g>
</svg>
